<?xml version="1.0" encoding="UTF-8" standalone="no"?>
<svg
   version="1.1"
   id="Layer_1"
   x="0px"
   y="0px"
   width="100"
   height="100"
   viewBox="0 0 100 100"
   enable-background="new 0 0 100 100"
   xml:space="preserve"
   sodipodi:docname="glow-lab-small.svg"
   inkscape:version="1.2.2 (b0a8486, 2022-12-01)"
   xmlns:inkscape="http://www.inkscape.org/namespaces/inkscape"
   xmlns:sodipodi="http://sodipodi.sourceforge.net/DTD/sodipodi-0.dtd"
   xmlns="http://www.w3.org/2000/svg"
   xmlns:svg="http://www.w3.org/2000/svg"><defs
   id="defs27" /><sodipodi:namedview
   id="namedview25"
   pagecolor="#ffffff"
   bordercolor="#666666"
   borderopacity="1.0"
   inkscape:showpageshadow="2"
   inkscape:pageopacity="0.0"
   inkscape:pagecheckerboard="0"
   inkscape:deskcolor="#d1d1d1"
   showgrid="false"
   inkscape:zoom="4.0781622"
   inkscape:cx="85.577763"
   inkscape:cy="115.73841"
   inkscape:window-width="2256"
   inkscape:window-height="1464"
   inkscape:window-x="0"
   inkscape:window-y="0"
   inkscape:window-maximized="1"
   inkscape:current-layer="text1019" />
<path
   fill="#ca355d"
   opacity="1"
   stroke="none"
   d="M 99.92192,100 C 66.664354,100 33.406795,100 0.11405318,99.96479 0.07887332,66.881097 0.0788632,33.832638 0.07905544,0.78418003 0.07905645,0.54991222 0.08188844,0.31564542 0.11964837,0.08074827 0.33828463,0.07943293 0.52059668,0.07801642 0.70290975,0.07801642 33.527881,0.07790108 66.352856,0.07787882 99.177831,0.07787983 c 0.744089,0 0.743786,1.3963e-4 0.743786,0.74345834 7.1e-5,33.05954783 1.82e-4,66.11909683 2.93e-4,99.17864183 M 59.631555,47.985248 c 0.01391,0.01211 0.02782,0.0242 0.02825,0.08973 -0.291394,0.638709 -0.621243,1.263089 -0.865831,1.919246 -0.448825,1.204085 -0.75789,2.441992 -0.511291,3.742951 0.170345,0.898653 0.669861,1.554632 1.556158,1.839953 0.890421,0.286638 1.681161,0.03099 2.328277,-0.60884 0.310486,-0.306982 0.548531,-0.68975 0.803681,-1.049342 0.181192,-0.255375 0.336101,-0.529399 0.49758,-0.786858 0.311507,0.502182 0.563871,0.989657 0.890374,1.42101 1.22431,1.617436 3.132433,1.918696 4.799503,0.76712 1.194208,-0.824932 1.830013,-2.030273 2.240968,-3.380633 0.139951,-0.459875 0.269016,-0.924625 0.439765,-1.373171 0.202764,-0.532651 0.608584,-0.855975 1.183336,-0.875191 1.342807,-0.04489 2.571195,-0.496637 3.786164,-1.008282 1.798031,-0.757194 3.59912,-1.507311 5.390801,-2.279273 0.535024,-0.230527 0.974878,-0.605354 1.258472,-1.126522 0.243699,-0.447855 0.08479,-0.862069 -0.409076,-0.95933 -0.300471,-0.05919 -0.664542,-0.06319 -0.938403,0.05315 -1.987325,0.844084 -3.948143,1.750942 -5.940119,2.583447 -0.981377,0.410142 -2.005631,0.721851 -3.021068,1.044812 -0.640861,0.203829 -0.771227,0.09364 -0.851894,-0.581241 -0.04014,-0.335802 -0.06151,-0.674381 -0.114802,-1.007957 -0.09696,-0.606862 -0.410978,-1.061092 -0.988634,-1.308026 -0.875324,-0.37418 -2.144228,-0.04655 -2.735241,0.703191 -0.627599,0.796162 -0.597692,1.667891 0.09617,2.398587 0.268585,0.28285 0.560265,0.54379 0.841798,0.814328 0.278027,0.267172 0.417807,0.585437 0.391791,0.97825 -0.09388,1.417852 -0.647661,2.637586 -1.583795,3.692051 -0.09353,0.105356 -0.213914,0.191773 -0.333914,0.267934 -0.708336,0.449543 -1.613263,0.1789 -1.908204,-0.600728 -0.136279,-0.360227 -0.198339,-0.75288 -0.259146,-1.136361 -0.107821,-0.679965 -0.139478,-1.375628 -0.294205,-2.043595 -0.182562,-0.788079 -0.811496,-1.061582 -1.533547,-0.694328 -0.303815,0.154524 -0.604316,0.386171 -0.805292,0.657578 -0.416358,0.562277 -0.756589,1.180281 -1.144202,1.764703 -0.336826,0.507846 -0.685865,1.008448 -1.051199,1.495994 -0.105792,0.141183 -0.286402,0.226303 -0.51142,0.396739 -0.05028,-0.307284 -0.101471,-0.506572 -0.112619,-0.70807 -0.04392,-0.793728 0.09689,-1.568437 0.418756,-2.284207 0.458027,-1.018587 0.989492,-2.003965 1.480599,-3.007922 0.313609,-0.641098 0.669613,-1.269855 0.901546,-1.940484 0.324538,-0.938363 -0.253066,-1.633005 -1.241248,-1.503015 -0.450207,0.05922 -0.908116,0.240407 -1.30725,0.464672 -0.587536,0.330131 -1.149009,0.718504 -1.679806,1.135274 -1.043169,0.819068 -2.225823,1.33535 -3.481566,1.7098 -0.719296,0.214491 -1.447264,0.294375 -2.198416,0.169196 -0.229519,-0.03825 -0.335367,-0.139107 -0.340889,-0.337939 -0.0086,-0.310345 0.0019,-0.622716 0.02784,-0.932265 0.105505,-1.261892 -0.645938,-2.250571 -1.903341,-2.41612 -1.438346,-0.189365 -2.741892,0.127842 -3.813553,1.166692 -0.308421,0.298977 -0.60493,0.610491 -0.91832,0.90407 -1.106541,1.036615 -2.267996,1.997194 -3.700286,2.562494 -0.703946,0.277843 -1.428261,0.401959 -2.177397,0.204925 -1.315907,-0.346107 -2.193899,-1.52573 -1.937443,-2.706789 0.113403,-0.52226 0.346513,-1.042419 0.629485,-1.498942 0.575119,-0.927845 1.290864,-1.772461 1.825214,-2.720924 1.847942,-3.280087 3.517558,-6.648652 4.688172,-10.239625 0.371177,-1.138625 0.680499,-2.299533 0.581948,-3.520367 -0.04749,-0.588337 -0.243978,-1.106675 -0.823155,-1.362323 -0.583607,-0.257612 -1.128933,-0.07199 -1.543083,0.341395 -0.521013,0.520048 -1.048735,1.063889 -1.434231,1.684068 -1.971929,3.172376 -3.53681,6.543838 -4.720668,10.085901 -0.506789,1.5163 -0.96575,3.050462 -1.385192,4.593159 -0.167221,0.615028 -0.507567,0.928897 -1.092151,1.048516 -0.742027,0.15184 -1.323423,0.573932 -1.868173,1.07543 -0.545435,0.50213 -1.102501,0.993538 -1.678616,1.459809 -0.45857,0.371126 -0.508521,0.360841 -0.77308,-0.152097 -0.536477,-1.040139 -1.033977,-2.100353 -1.568642,-3.14146 -0.783472,-1.525589 -2.154682,-2.050481 -3.802321,-1.584038 -2.556313,0.723691 -4.169872,4.010653 -4.095562,5.966191 0.05366,1.412186 0.749677,2.464107 2.054674,2.989134 1.41887,0.570837 2.682962,0.32753 3.69502,-0.710764 0.703591,-0.721836 1.150561,-1.600394 1.538283,-2.515397 0.06644,-0.156813 0.136478,-0.312108 0.217452,-0.49685 0.851365,1.061364 0.882573,1.490908 0.230809,2.595721 -0.05291,0.08967 -0.10474,0.180072 -0.160333,0.268077 -1.826198,2.890725 -3.156491,6.006651 -4.148578,9.267598 -0.705517,2.319006 -0.997829,4.687738 -0.514054,7.093735 0.370158,1.840934 1.080368,3.541321 2.40932,4.908956 1.654536,1.702704 4.663894,2.174306 6.676259,0.1994 0.734125,-0.720449 1.279116,-1.571536 1.687097,-2.511273 0.691434,-1.592627 1.014575,-3.278155 1.201122,-4.9899 0.327554,-3.00561 0.124943,-5.979529 -1.003912,-8.797855 -0.751772,-1.876899 -1.734079,-3.662873 -2.642457,-5.474877 -0.336395,-0.67104 -0.37801,-1.112181 0.07013,-1.659928 0.88005,-1.075678 2.099905,-1.605325 3.351568,-2.076516 0.03818,0.06569 0.05658,0.08628 0.06286,0.110073 0.02655,0.10043 0.04735,0.202402 0.07408,0.302787 0.545885,2.050136 1.770019,3.417114 3.908086,3.83984 1.389862,0.274802 2.720205,0.0168 4.001001,-0.534868 0.461871,-0.198936 0.901231,-0.450129 1.372057,-0.68818 0.01935,0.09999 0.04208,0.185522 0.05181,0.272507 0.19283,1.7234 1.392861,2.663383 3.10873,2.432518 1.251112,-0.168333 2.246756,-0.79402 3.037295,-1.749768 0.321424,-0.388599 0.694728,-0.598164 1.194302,-0.639286 0.881399,-0.07257 1.768449,-0.124226 2.639093,-0.269051 1.476897,-0.245662 2.830944,-0.859217 4.199916,-1.491918 z"
   id="path2"
   style="stroke-width:0.0781248" />
<path
   fill="#d6456c"
   opacity="1"
   stroke="none"
   d="m 99.960975,100 c -0.03916,-33.05955 -0.03936,-66.119099 -0.03936,-99.17864665 0,-0.74331973 3.03e-4,-0.74345936 -0.743786,-0.74345936 -32.824978,0 -65.649953,2.125e-5 -98.47492429,1.366e-4 C 0.52059266,0.0780316 0.33827959,0.07934592 0.11831486,0.06036466 0.08000045,0.02707663 0.07937314,0.01353882 0.07874583,1.0117943e-6 c 33.30058517,0 66.60117117,0 99.92125417,0 C 100,33.333331 100,66.666665 99.96094,100 Z"
   id="path4"
   style="stroke-width:0.0781248" />
<path
   fill="#e2567b"
   opacity="1"
   stroke="none"
   d="M 0.03972218,0 C 0.07941462,0.01353781 0.08004193,0.02707562 0.0820048,0.06099096 0.08184696,0.31563226 0.07907061,0.54990008 0.07907061,0.78416789 0.07887635,33.832626 0.07888445,66.881084 0.07884094,99.964769 c -0.0260839,0.02226 -0.07377958,0.01052 -0.07469019,-0.004 -0.00647544,-0.103749 -0.003440077,-0.208106 -0.003440077,-0.31228 0,-33.21614 0,-66.432285 0.039065127,-99.648429858469 z"
   id="path6"
   style="stroke-width:0.0781248" />
<path
   fill="#fdfbfc"
   opacity="1"
   stroke="none"
   d="m 59.590286,47.948413 c -1.327703,0.669537 -2.68175,1.283092 -4.158648,1.528753 -0.870643,0.144826 -1.757693,0.196491 -2.639092,0.269052 -0.499574,0.04113 -0.872878,0.250687 -1.194303,0.639286 -0.790538,0.955748 -1.786182,1.581435 -3.037295,1.749768 -1.715868,0.230866 -2.915899,-0.709119 -3.108729,-2.432518 -0.0097,-0.08698 -0.03246,-0.17252 -0.05181,-0.272508 -0.470826,0.238051 -0.910186,0.489245 -1.372057,0.68818 -1.280796,0.551664 -2.611139,0.809671 -4.001001,0.534869 -2.138067,-0.422725 -3.362201,-1.789703 -3.908086,-3.83984 -0.02672,-0.10039 -0.04752,-0.202352 -0.07408,-0.302787 -0.0063,-0.0238 -0.02469,-0.04438 -0.06286,-0.110074 -1.251663,0.471192 -2.471519,1.000839 -3.351568,2.076517 -0.448131,0.547748 -0.406517,0.988889 -0.07013,1.659927 0.908378,1.812005 1.890685,3.597979 2.642456,5.474878 1.128856,2.818326 1.331467,5.792246 1.003913,8.797855 -0.186547,1.711745 -0.509688,3.397273 -1.201122,4.9899 -0.407981,0.939736 -0.952972,1.790824 -1.687097,2.511272 -2.012366,1.974908 -5.021723,1.503306 -6.676259,-0.199399 -1.328952,-1.367635 -2.039163,-3.068022 -2.40932,-4.908957 -0.483775,-2.405996 -0.191463,-4.774728 0.514054,-7.093734 0.992087,-3.260947 2.32238,-6.376873 4.148578,-9.267598 0.0556,-0.08801 0.107432,-0.178399 0.160333,-0.268077 0.651764,-1.104813 0.620555,-1.534357 -0.230809,-2.59572 -0.08097,0.18474 -0.151005,0.340036 -0.217452,0.496849 -0.387722,0.915004 -0.834692,1.793561 -1.538284,2.515397 -1.012058,1.038294 -2.276149,1.2816 -3.695019,0.710764 -1.304998,-0.525027 -2.001013,-1.576948 -2.054674,-2.989134 -0.07431,-1.955538 1.539249,-5.2425 4.095562,-5.966191 1.647639,-0.466443 3.018849,0.05845 3.80232,1.584038 0.534666,1.041107 1.032166,2.101321 1.568643,3.14146 0.264559,0.512939 0.31451,0.523224 0.77308,0.152097 0.576115,-0.46627 1.13318,-0.957679 1.678616,-1.459809 0.54475,-0.501499 1.126146,-0.92359 1.868173,-1.07543 0.584584,-0.119619 0.92493,-0.433488 1.092151,-1.048516 0.419442,-1.542697 0.878403,-3.076859 1.385192,-4.593159 1.183857,-3.542063 2.748739,-6.913525 4.720668,-10.085901 0.385496,-0.620179 0.913218,-1.164019 1.434231,-1.684068 0.41415,-0.413382 0.959476,-0.599007 1.543084,-0.341395 0.579176,0.255649 0.77566,0.773987 0.823154,1.362323 0.09855,1.220834 -0.210771,2.381741 -0.581948,3.520367 -1.170614,3.590972 -2.84023,6.959538 -4.688172,10.239624 -0.53435,0.948463 -1.250095,1.79308 -1.825214,2.720925 -0.282972,0.456523 -0.516082,0.976682 -0.629485,1.498942 -0.256456,1.181059 0.621536,2.360683 1.937443,2.70679 0.749135,0.197034 1.473451,0.07291 2.177397,-0.204926 1.43229,-0.5653 2.593744,-1.525879 3.700285,-2.562494 0.313391,-0.293578 0.6099,-0.605092 0.918321,-0.90407 1.071662,-1.03885 2.375207,-1.356057 3.813553,-1.166691 1.257403,0.165548 2.008846,1.154227 1.903341,2.41612 -0.02587,0.309548 -0.03645,0.621919 -0.02784,0.932265 0.0056,0.198831 0.11137,0.299691 0.340889,0.337938 0.751152,0.125179 1.47912,0.04529 2.198415,-0.169196 1.255744,-0.37445 2.438397,-0.890731 3.481567,-1.7098 0.530797,-0.41677 1.09227,-0.805143 1.679806,-1.135273 0.399134,-0.224266 0.857043,-0.405449 1.30725,-0.464673 0.988182,-0.12999 1.565786,0.564652 1.241248,1.503015 -0.231933,0.670628 -0.587937,1.299386 -0.901546,1.940484 -0.491107,1.003957 -1.022572,1.989336 -1.480599,3.007922 -0.321868,0.715771 -0.462681,1.490479 -0.418756,2.284207 0.01115,0.201498 0.06233,0.400786 0.112619,0.70807 0.225018,-0.170436 0.405628,-0.255556 0.511419,-0.396739 0.365335,-0.487545 0.714374,-0.988148 1.0512,-1.495994 0.387613,-0.584422 0.727844,-1.202427 1.144202,-1.764703 0.200976,-0.271407 0.501477,-0.503054 0.805292,-0.657578 0.722051,-0.367254 1.350985,-0.09375 1.533547,0.694327 0.154727,0.667969 0.186384,1.363631 0.294205,2.043596 0.06081,0.383482 0.122867,0.776133 0.259146,1.136361 0.294941,0.779629 1.199868,1.050271 1.908204,0.600728 0.12,-0.07616 0.240382,-0.162578 0.333913,-0.267934 0.936135,-1.054465 1.489916,-2.274199 1.583796,-3.69205 0.02601,-0.392815 -0.113764,-0.71108 -0.391792,-0.978251 -0.281532,-0.270539 -0.573212,-0.531477 -0.841798,-0.814328 -0.693865,-0.730696 -0.723772,-1.602426 -0.09617,-2.398587 0.591013,-0.74974 1.859917,-1.077371 2.735241,-0.703191 0.577656,0.246934 0.89167,0.701164 0.988634,1.308026 0.05329,0.333577 0.07466,0.672154 0.114802,1.007958 0.08067,0.674877 0.211033,0.785069 0.851894,0.58124 1.015437,-0.322962 2.039691,-0.63467 3.021068,-1.044812 1.991976,-0.832505 3.952794,-1.739363 5.940119,-2.583447 0.273861,-0.116329 0.637932,-0.112333 0.938403,-0.05315 0.493834,0.09725 0.652775,0.511475 0.409076,0.959329 -0.283594,0.52117 -0.723448,0.895996 -1.258482,1.126524 -1.791671,0.771961 -3.59276,1.522078 -5.390791,2.279272 -1.21497,0.511646 -2.443357,0.963387 -3.786164,1.008281 -0.574753,0.01921 -0.980572,0.342541 -1.183336,0.875191 -0.17075,0.448547 -0.299814,0.913297 -0.439765,1.373173 -0.410955,1.350359 -1.04676,2.555699 -2.240968,3.380633 -1.66707,1.151575 -3.575193,0.850315 -4.799503,-0.767122 -0.326503,-0.431352 -0.578868,-0.918827 -0.890374,-1.421008 -0.161479,0.257458 -0.316388,0.531482 -0.497581,0.786858 -0.25515,0.359592 -0.493194,0.742359 -0.80368,1.049342 -0.647116,0.639824 -1.437856,0.895477 -2.328277,0.608839 -0.886297,-0.285321 -1.385813,-0.941299 -1.556158,-1.839953 -0.2466,-1.300959 0.06247,-2.538866 0.511291,-3.742951 0.244588,-0.656157 0.574437,-1.280536 0.888166,-1.960302 0.02436,-0.07179 0.0264,-0.102524 0.02844,-0.133257 -0.0401,0.01592 -0.08019,0.03184 -0.12029,0.04775 M 29.02508,54.37678 c -1.106367,2.358656 -2.076172,4.766383 -2.649622,7.318381 -0.436973,1.944638 -0.592273,3.881137 0.109827,5.804492 0.380892,1.04343 0.819885,2.053872 1.571393,2.894554 1.317524,1.473884 3.290981,1.399713 4.449446,-0.192938 0.317782,-0.436878 0.585529,-0.925207 0.792964,-1.424527 0.672207,-1.618089 0.88076,-3.334661 0.99707,-5.066724 0.296503,-4.415535 -1.143396,-8.397955 -3.05851,-12.260904 -0.09396,-0.189504 -0.239862,-0.353241 -0.426015,-0.622001 -0.61834,1.229544 -1.188709,2.363697 -1.786553,3.549667 m -2.299295,-6.98225 c 0.48297,-0.931978 0.511178,-1.899324 0.176806,-2.874351 -0.192458,-0.561195 -0.6124,-0.728274 -1.150277,-0.488015 -0.221768,0.09907 -0.439209,0.237361 -0.615428,0.403601 -0.672048,0.634002 -1.186989,1.382532 -1.495385,2.256655 -0.222894,0.631771 -0.335777,1.283083 -0.206634,1.95724 0.127884,0.667577 0.64904,1.122332 1.299995,1.127892 0.45808,0.0039 0.830896,-0.212684 1.052508,-0.574132 0.34377,-0.560683 0.612071,-1.16764 0.938415,-1.80889 M 43.273648,31.754646 c 0.138486,-0.434404 0.276978,-0.868805 0.415465,-1.303209 -1.038454,1.090811 -4.880985,10.007844 -5.107295,11.789055 1.951211,-3.297922 3.487127,-6.783359 4.69183,-10.485846 m 4.158986,18.25115 c 0.352199,0.477193 0.635962,0.564507 1.172162,0.33244 0.573436,-0.248165 0.997423,-0.67616 1.366493,-1.138362 -0.398552,-0.295115 -0.797343,-0.543929 -1.138217,-0.856009 -0.335315,-0.306979 -0.61186,-0.678148 -0.934614,-1.044321 -0.460422,0.839328 -0.759869,1.69024 -0.465824,2.706252 m 2.438319,-3.441812 c 0.195049,0.434098 0.534217,0.700712 1.048617,0.922871 0,-0.383792 0.04488,-0.699211 -0.0159,-0.992752 -0.04002,-0.193243 -0.197329,-0.445919 -0.364308,-0.510053 -0.268271,-0.10303 -0.601688,0.198636 -0.668416,0.579934 m -11.393129,-4.19047 c 0,0 -0.0068,0.0037 0,0 z"
   id="path8"
   style="stroke-width:0.0781248" />
<path
   fill="#c9365e"
   opacity="1"
   stroke="none"
   d="m 29.038813,54.350886 c 0.584107,-1.160064 1.154475,-2.294216 1.772814,-3.52376 0.186154,0.268761 0.33207,0.432496 0.426016,0.622001 1.915114,3.862949 3.355013,7.845368 3.058509,12.260904 -0.116309,1.732063 -0.324861,3.448635 -0.997069,5.066724 -0.207435,0.49932 -0.475182,0.987649 -0.792963,1.424527 -1.158466,1.592651 -3.131924,1.666822 -4.449448,0.192938 -0.751507,-0.840682 -1.1905,-1.851125 -1.571392,-2.894554 -0.7021,-1.923356 -0.5468,-3.859853 -0.109827,-5.804492 0.573451,-2.551998 1.543255,-4.959725 2.66336,-7.344288 z"
   id="path10"
   style="stroke-width:0.0781248" />
<path
   fill="#c8385f"
   opacity="1"
   stroke="none"
   d="m 26.712754,47.421503 c -0.313318,0.614291 -0.581619,1.221247 -0.925389,1.781931 -0.221612,0.361447 -0.594428,0.578042 -1.052508,0.574131 -0.650955,-0.0056 -1.172111,-0.460315 -1.299995,-1.127891 -0.129143,-0.674158 -0.01626,-1.32547 0.206634,-1.957241 0.308397,-0.874123 0.823337,-1.622654 1.495385,-2.256655 0.176219,-0.16624 0.39366,-0.304537 0.615429,-0.403601 0.537876,-0.240258 0.957818,-0.07317 1.150276,0.488015 0.334372,0.975027 0.306164,1.942373 -0.189832,2.901311 z"
   id="path12"
   style="stroke-width:0.0781248" />
<path
   fill="#c34063"
   opacity="1"
   stroke="none"
   d="m 43.263564,31.783848 c -1.194618,3.673293 -2.730534,7.15873 -4.681745,10.456652 0.22631,-1.781211 4.068841,-10.698244 5.107295,-11.789055 -0.138487,0.434404 -0.276979,0.868805 -0.42555,1.332403 z"
   id="path14"
   style="stroke-width:0.0781248" />
<path
   fill="#c63b61"
   opacity="1"
   stroke="none"
   d="m 47.419159,49.978514 c -0.280569,-0.988722 0.01888,-1.839634 0.4793,-2.678962 0.322754,0.366173 0.599299,0.737342 0.934614,1.044321 0.340874,0.31208 0.739665,0.560894 1.138217,0.856009 -0.36907,0.462202 -0.793057,0.890197 -1.366493,1.138362 -0.5362,0.232067 -0.819963,0.144753 -1.185638,-0.35973 z"
   id="path16"
   style="stroke-width:0.0781248" />
<path
   fill="#c44266"
   opacity="1"
   stroke="none"
   d="m 49.862567,46.53615 c 0.07512,-0.353456 0.408532,-0.655122 0.676804,-0.552092 0.166978,0.06413 0.324296,0.31681 0.364307,0.510054 0.06078,0.29354 0.0159,0.608959 0.0159,0.992751 -0.514399,-0.222159 -0.853566,-0.488773 -1.057004,-0.950713 z"
   id="path18"
   style="stroke-width:0.0781248" />
<path
   fill="#ca355d"
   opacity="1"
   stroke="none"
   d="m 59.610922,47.966833 c 0.01946,-0.03434 0.05955,-0.05026 0.09965,-0.06617 -0.002,0.03074 -0.004,0.06147 -0.0217,0.106555 -0.02949,0.0022 -0.04341,-0.0098 -0.07796,-0.04037 z"
   id="path20"
   style="stroke-width:0.0781248" />
<path
   fill="#c34063"
   opacity="1"
   stroke="none"
   d="m 38.474466,42.375355 c -0.0033,0.0018 0.0033,-0.0018 0,0 z"
   id="path22"
   style="stroke-width:0.0781248" />
<g
   aria-label="LAB"
   id="text1019"
   style="font-size:22.5745px;line-height:29.8%;font-family:Kalimati;-inkscape-font-specification:Kalimati;letter-spacing:2.16464px;word-spacing:0px;fill:#ffb1f7;stroke:#000000;stroke-width:1.41091px;stroke-opacity:0.126946;stop-color:#000000"><path
     d="m 50.258769,72.654201 h 2.226586 V 87.23724 h 8.013507 v 1.873859 H 50.258769 Z"
     id="path6545" /><path
     d="m 69.155875,74.84772 -3.020221,8.189869 h 6.051464 z m -1.256589,-2.193519 h 2.5242 l 6.271919,16.456898 h -2.314768 l -1.499088,-4.221695 h -7.41828 l -1.499088,4.221695 h -2.347836 z"
     id="path6547" /><path
     d="m 81.582653,81.251911 v 6.029419 h 3.571356 q 1.796701,0 2.656472,-0.738521 0.870794,-0.749544 0.870794,-2.2817 0,-1.543178 -0.870794,-2.270677 -0.859771,-0.738521 -2.656472,-0.738521 z m 0,-6.767941 v 4.960217 h 3.295789 q 1.63136,0 2.424995,-0.606248 0.804657,-0.617272 0.804657,-1.87386 0,-1.245566 -0.804657,-1.862837 -0.793635,-0.617272 -2.424995,-0.617272 z m -2.226586,-1.829769 h 5.687715 q 2.546245,0 3.924083,1.05818 1.377838,1.05818 1.377838,3.009198 0,1.510111 -0.705453,2.40295 -0.705453,0.892839 -2.072268,1.113293 1.642383,0.352727 2.546244,1.477043 0.914885,1.113293 0.914885,2.788744 0,2.204541 -1.499088,3.406016 -1.499088,1.201474 -4.265787,1.201474 h -5.908169 z"
     id="path6549" /></g></svg>
