<?xml version="1.0" encoding="UTF-8" standalone="no"?>
<svg
   version="1.1"
   id="Layer_1"
   x="0px"
   y="0px"
   width="100%"
   viewBox="0 0 600 600"
   enable-background="new 0 0 600 600"
   xml:space="preserve"
   sodipodi:docname="glow-rosa.svg"
   inkscape:version="1.2.2 (b0a8486, 2022-12-01)"
   xmlns:inkscape="http://www.inkscape.org/namespaces/inkscape"
   xmlns:sodipodi="http://sodipodi.sourceforge.net/DTD/sodipodi-0.dtd"
   xmlns="http://www.w3.org/2000/svg"
   xmlns:svg="http://www.w3.org/2000/svg"><defs
   id="defs27" /><sodipodi:namedview
   id="namedview25"
   pagecolor="#ffffff"
   bordercolor="#666666"
   borderopacity="1.0"
   inkscape:showpageshadow="2"
   inkscape:pageopacity="0.0"
   inkscape:pagecheckerboard="0"
   inkscape:deskcolor="#d1d1d1"
   showgrid="false"
   inkscape:zoom="2.3310289"
   inkscape:cx="273.69887"
   inkscape:cy="178.03297"
   inkscape:window-width="2256"
   inkscape:window-height="1464"
   inkscape:window-x="0"
   inkscape:window-y="0"
   inkscape:window-maximized="1"
   inkscape:current-layer="Layer_1" />
<path
   fill="#ca355d"
   opacity="1"
   stroke="none"
   d="m 599.53126,600.00005 c -199.54517,0 -399.09035,0 -598.8466172,-0.21138 C 0.4735388,401.28656 0.4734898,202.99583 0.4746618,4.7050896 c 9e-6,-1.405607 0.01673,-2.8112133 0.243593,-4.2205949 C 2.0300718,0.4763887 3.1239458,0.4682682 4.2178208,0.468264 201.16747,0.4675734 398.11713,0.4674416 595.06678,0.4674468 c 4.46454,0 4.46277,8.353e-4 4.46277,4.4607527 4e-4,198.3572705 10e-4,396.7145605 0.002,595.0718505 M 357.78934,287.91156 c 0.0835,0.0727 0.16693,0.14526 0.16948,0.53833 -1.74836,3.83225 -3.72746,7.57853 -5.19498,11.51547 -2.69294,7.22452 -4.54733,14.65196 -3.06773,22.45771 1.02206,5.39192 4.01916,9.3278 9.33693,11.03972 5.34253,1.71982 10.08695,0.18591 13.96964,-3.65304 1.86292,-1.8419 3.29118,-4.13851 4.82208,-6.29605 1.08716,-1.53225 2.0166,-3.17639 2.98549,-4.72114 1.86903,3.01307 3.38321,5.93792 5.34223,8.52604 7.34586,9.70462 18.79459,11.51219 28.797,4.60273 7.16523,-4.9496 10.98006,-12.18165 13.4458,-20.2838 0.83969,-2.75925 1.61409,-5.54775 2.63858,-8.23902 1.21659,-3.19592 3.65149,-5.13586 7.10001,-5.25116 8.05684,-0.26936 15.42716,-2.97981 22.71696,-6.04969 10.78818,-4.54316 21.59471,-9.04386 32.34474,-13.67563 3.21016,-1.38317 5.84933,-3.63213 7.55088,-6.75914 1.4622,-2.68713 0.50851,-5.17242 -2.45446,-5.75597 -1.80283,-0.35514 -3.98726,-0.37913 -5.63045,0.31885 -11.92391,5.0645 -23.68882,10.50565 -35.64065,15.50068 -5.88826,2.46086 -12.03378,4.3311 -18.1264,6.26888 -3.84516,1.22297 -4.62736,0.56182 -5.11135,-3.48744 -0.24083,-2.01482 -0.36905,-4.04629 -0.68881,-6.04775 -0.58179,-3.64117 -2.46587,-6.36655 -5.93181,-7.84816 -5.25194,-2.24507 -12.86536,-0.27929 -16.41142,4.21916 -3.76559,4.77695 -3.58616,10.00733 0.57703,14.39151 1.61152,1.69711 3.3616,3.26273 5.0508,4.88597 1.66815,1.60303 2.50683,3.51262 2.35073,5.86949 -0.56327,8.50712 -3.88596,15.82552 -9.50276,22.15231 -0.56119,0.63215 -1.28348,1.15065 -2.00347,1.60761 -4.25003,2.69726 -9.67959,1.0734 -11.44923,-3.60437 -0.81766,-2.16136 -1.19003,-4.51727 -1.55487,-6.81817 -0.64693,-4.07979 -0.83686,-8.25376 -1.76523,-12.26157 -1.09536,-4.72847 -4.86897,-6.3695 -9.20128,-4.16596 -1.82288,0.92714 -3.62589,2.31703 -4.83174,3.94546 -2.49814,3.37367 -4.53952,7.08169 -6.86521,10.58822 -2.02095,3.04707 -4.11517,6.05069 -6.30719,8.97597 -0.63473,0.84709 -1.71839,1.35782 -3.06851,2.38043 -0.30175,-1.8437 -0.60883,-3.03943 -0.6757,-4.24843 -0.26357,-4.76236 0.58131,-9.4106 2.51252,-13.70523 2.74816,-6.11151 5.93696,-12.0238 8.88359,-18.04754 1.88164,-3.84658 4.01768,-7.61913 5.40926,-11.64289 1.94724,-5.63019 -1.51838,-9.79803 -7.44746,-9.01809 -2.70126,0.35534 -5.44871,1.44244 -7.84351,2.78803 -3.52521,1.98078 -6.89403,4.31103 -10.07883,6.81164 -6.259,4.91441 -13.35492,8.0121 -20.88938,10.2588 -4.31576,1.28694 -8.68356,1.76625 -13.19047,1.01517 -1.37712,-0.22948 -2.01221,-0.83464 -2.04533,-2.02762 -0.0517,-1.86208 0.0118,-3.7363 0.16708,-5.59359 0.63302,-7.57136 -3.87564,-13.50343 -11.42004,-14.49672 -8.63006,-1.1362 -16.45134,0.76704 -22.88129,7.00015 -1.85053,1.79386 -3.62958,3.66294 -5.50992,5.42441 -6.63925,6.2197 -13.60796,11.98317 -22.2017,15.37497 -4.22367,1.66706 -8.56956,2.41176 -13.06437,1.22955 -7.89543,-2.07664 -13.16338,-9.15439 -11.62465,-16.24074 0.68041,-3.13355 2.07907,-6.25451 3.77691,-8.99365 3.4507,-5.56707 7.74518,-10.63477 10.95128,-16.32554 11.08764,-19.68052 21.10532,-39.89192 28.129,-61.43775 2.22706,-6.83176 4.08299,-13.7972 3.49167,-21.1222 -0.28495,-3.53002 -1.46385,-6.64005 -4.93891,-8.17394 -3.50164,-1.54567 -6.7736,-0.43191 -9.25849,2.04837 -3.12608,3.1203 -6.2924,6.38333 -8.60537,10.10441 -11.83157,19.03426 -21.22085,39.26303 -28.32399,60.51541 -3.04074,9.09779 -5.79449,18.30277 -8.31115,27.55895 -1.00332,3.69017 -3.04538,5.57337 -6.55289,6.2911 -4.45216,0.91103 -7.94053,3.44358 -11.20904,6.45258 -3.27261,3.01276 -6.61499,5.96122 -10.07169,8.75885 -2.75141,2.22676 -3.05111,2.16504 -4.63847,-0.91259 -3.21886,-6.24083 -6.20385,-12.60211 -9.41183,-18.84876 -4.70084,-9.15352 -12.92809,-12.30288 -22.8139,-9.50423 -15.33787,4.34214 -25.01922,24.06392 -24.57336,35.79715 0.32197,8.47311 4.49805,14.78465 12.32803,17.9348 8.51322,3.42503 16.09777,1.96519 22.17009,-4.26458 4.22155,-4.33101 6.90337,-9.60236 9.2297,-15.09238 0.39868,-0.94087 0.81886,-1.87265 1.30471,-2.98111 5.10817,6.36818 5.29544,8.94546 1.38486,15.57434 -0.31742,0.53807 -0.62844,1.08043 -0.962,1.60846 -10.95718,17.34435 -18.93893,36.03991 -24.89145,55.60558 -4.2331,13.91404 -5.98697,28.12644 -3.08432,42.56241 2.22094,11.04561 6.4822,21.24793 14.45591,29.45374 9.9272,10.21623 27.98333,13.04584 40.05753,1.19639 4.40473,-4.3227 7.67467,-9.42922 10.12256,-15.06763 4.14859,-9.55576 6.08745,-19.66893 7.20673,-29.9394 1.96531,-18.03366 0.74965,-35.87718 -6.02347,-52.78713 -4.51063,-11.26138 -10.40447,-21.97724 -15.85473,-32.84926 -2.01837,-4.02624 -2.26805,-6.67308 0.42073,-9.95957 5.28029,-6.45406 12.59942,-9.63194 20.10938,-12.4591 0.22913,0.39417 0.33948,0.51768 0.37721,0.66045 0.15932,0.60261 0.28413,1.2144 0.44449,1.81672 3.27531,12.30082 10.62009,20.50268 23.44849,23.03903 8.33916,1.64882 16.32122,0.10081 24.00599,-3.2092 2.77123,-1.19362 5.40737,-2.70078 8.23233,-4.12909 0.1161,0.59993 0.25252,1.11314 0.31088,1.63506 1.15699,10.34038 8.35716,15.9803 18.65236,14.5951 7.50667,-1.01 13.48054,-4.76412 18.22376,-10.4986 1.92854,-2.33161 4.16837,-3.58899 7.1658,-3.83573 5.2884,-0.43535 10.6107,-0.74535 15.83454,-1.6143 8.86138,-1.47397 16.98566,-5.1553 25.19949,-8.95151 z"
   id="path2"
   style="stroke-width:0.468748" />
<path
   fill="#d6456c"
   opacity="1"
   stroke="none"
   d="m 599.76563,600.00005 c -0.23499,-198.35729 -0.23568,-396.71458 -0.23608,-595.0718505 0,-4.4599174 0.002,-4.4607527 -4.46277,-4.4607527 -196.94965,-5.2e-6 -393.89931,1.266e-4 -590.8489592,8.174e-4 -1.093875,3.9e-6 -2.187749,0.008127 -3.507539,-0.1060124 -0.229693,-0.1997025 -0.23347,-0.2809373 -0.237248,-0.3621717 199.8033262,0 399.6066662,0 599.5269762,0 0,199.9999799 0,399.9999699 -0.23438,599.9999699 z"
   id="path4"
   style="stroke-width:0.468748" />
<path
   fill="#e2567b"
   opacity="1"
   stroke="none"
   d="m 0.2386608,8.01e-5 c 0.238151,0.081235 0.241928,0.1624692 0.253678,0.3659466 -9.46e-4,1.5278496 -0.01767,2.9334559 -0.01768,4.3390629 -0.0012,198.2907404 -0.0011,396.5814704 -0.0014,595.0835804 -0.156501,0.13328 -0.442654,0.0634 -0.448158,-0.0244 -0.03912,-0.62255 -0.02083,-1.24866 -0.02083,-1.87368 0,-199.29686 0,-398.59373 0.234373,-597.89059 z"
   id="path6"
   style="stroke-width:0.468748" />
<path
   fill="#fdfbfc"
   opacity="1"
   stroke="none"
   d="m 357.54171,287.69055 c -7.9662,4.01722 -16.09048,7.69855 -24.95186,9.17252 -5.22384,0.86895 -10.54614,1.17895 -15.83454,1.6143 -2.99743,0.24674 -5.23726,1.50412 -7.1658,3.83573 -4.74322,5.73448 -10.71709,9.4886 -18.22376,10.4986 -10.2952,1.3852 -17.49537,-4.25472 -18.65236,-14.5951 -0.0584,-0.52192 -0.19478,-1.03513 -0.31088,-1.63506 -2.82496,1.42831 -5.4611,2.93547 -8.23233,4.12909 -7.68477,3.30997 -15.66683,4.85802 -24.00599,3.2092 -12.8284,-2.53635 -20.17318,-10.73821 -23.44849,-23.03903 -0.16036,-0.60232 -0.28517,-1.21411 -0.44449,-1.81672 -0.0377,-0.14277 -0.14808,-0.26628 -0.37721,-0.66045 -7.50996,2.82716 -14.82909,6.00504 -20.10938,12.4591 -2.68878,3.28649 -2.4391,5.93333 -0.42073,9.95957 5.45026,10.87202 11.3441,21.58788 15.85473,32.84926 6.77312,16.90995 7.98878,34.75347 6.02347,52.78713 -1.11928,10.27047 -3.05814,20.38364 -7.20673,29.9394 -2.44789,5.63841 -5.71783,10.74493 -10.12256,15.06763 -12.0742,11.84945 -30.13033,9.01984 -40.05753,-1.19639 -7.97371,-8.20581 -12.23497,-18.40813 -14.45591,-29.45374 -2.90265,-14.43597 -1.14878,-28.64837 3.08432,-42.56241 5.95252,-19.56567 13.93427,-38.26123 24.89145,-55.60558 0.33356,-0.52803 0.64458,-1.07039 0.962,-1.60846 3.91058,-6.62888 3.72331,-9.20616 -1.38486,-15.57434 -0.48585,1.10846 -0.90603,2.04024 -1.30471,2.98111 -2.32633,5.49002 -5.00815,10.76137 -9.2297,15.09238 -6.07232,6.22977 -13.65687,7.68961 -22.17009,4.26458 -7.82998,-3.15015 -12.00606,-9.46169 -12.32803,-17.9348 -0.44586,-11.73323 9.23549,-31.45501 24.57336,-35.79715 9.88581,-2.79865 18.11306,0.35071 22.8139,9.50423 3.20798,6.24665 6.19297,12.60793 9.41183,18.84876 1.58736,3.07763 1.88706,3.13935 4.63847,0.91259 3.4567,-2.79763 6.79908,-5.74609 10.07169,-8.75885 3.26851,-3.009 6.75688,-5.54155 11.20904,-6.45258 3.50751,-0.71773 5.54957,-2.60093 6.55289,-6.2911 2.51666,-9.25618 5.27041,-18.46116 8.31115,-27.55895 7.10314,-21.25238 16.49242,-41.48115 28.32399,-60.51541 2.31297,-3.72108 5.47929,-6.98411 8.60537,-10.10441 2.48489,-2.48028 5.75685,-3.59404 9.25849,-2.04837 3.47506,1.53389 4.65396,4.64392 4.93891,8.17394 0.59132,7.325 -1.26461,14.29044 -3.49167,21.1222 -7.02368,21.54583 -17.04136,41.75723 -28.129,61.43775 -3.2061,5.69077 -7.50058,10.75847 -10.95128,16.32554 -1.69784,2.73914 -3.0965,5.8601 -3.77691,8.99365 -1.53873,7.08635 3.72922,14.1641 11.62465,16.24074 4.49481,1.18221 8.8407,0.43751 13.06437,-1.22955 8.59374,-3.3918 15.56245,-9.15527 22.2017,-15.37497 1.88034,-1.76147 3.65939,-3.63055 5.50992,-5.42441 6.42995,-6.23311 14.25123,-8.13635 22.88129,-7.00015 7.5444,0.99329 12.05306,6.92536 11.42004,14.49672 -0.15527,1.85729 -0.21873,3.73151 -0.16708,5.59359 0.0332,1.19298 0.66821,1.79814 2.04533,2.02762 4.50691,0.75108 8.87471,0.27177 13.19047,-1.01517 7.53446,-2.2467 14.63038,-5.34439 20.88938,-10.2588 3.1848,-2.50061 6.55362,-4.83086 10.07883,-6.81164 2.3948,-1.34559 5.14225,-2.43269 7.84351,-2.78803 5.92908,-0.77994 9.3947,3.3879 7.44746,9.01809 -1.39158,4.02376 -3.52762,7.79631 -5.40926,11.64289 -2.94663,6.02374 -6.13543,11.93603 -8.88359,18.04754 -1.93121,4.29463 -2.77609,8.94287 -2.51252,13.70523 0.0669,1.209 0.37395,2.40473 0.6757,4.24843 1.35012,-1.02261 2.43378,-1.53334 3.06851,-2.38043 2.19202,-2.92528 4.28624,-5.9289 6.30719,-8.97597 2.32569,-3.50653 4.36707,-7.21455 6.86521,-10.58822 1.20585,-1.62843 3.00886,-3.01832 4.83174,-3.94546 4.33231,-2.20354 8.10592,-0.56251 9.20128,4.16596 0.92837,4.00781 1.1183,8.18178 1.76523,12.26157 0.36484,2.3009 0.73721,4.65681 1.55487,6.81817 1.76964,4.67777 7.1992,6.30163 11.44923,3.60437 0.71999,-0.45696 1.44228,-0.97546 2.00347,-1.60761 5.6168,-6.32679 8.93949,-13.64519 9.50276,-22.15231 0.1561,-2.35687 -0.68258,-4.26646 -2.35073,-5.86949 -1.6892,-1.62324 -3.43928,-3.18886 -5.0508,-4.88597 -4.16319,-4.38418 -4.34262,-9.61456 -0.57703,-14.39151 3.54606,-4.49845 11.15948,-6.46423 16.41142,-4.21916 3.46594,1.48161 5.35002,4.20699 5.93181,7.84816 0.31976,2.00146 0.44798,4.03293 0.68881,6.04775 0.48399,4.04926 1.26619,4.71041 5.11135,3.48744 6.09262,-1.93778 12.23814,-3.80802 18.1264,-6.26888 11.95183,-4.99503 23.71674,-10.43618 35.64065,-15.50068 1.64319,-0.69798 3.82762,-0.67399 5.63045,-0.31885 2.96297,0.58355 3.91666,3.06884 2.45446,5.75597 -1.70155,3.12701 -4.34072,5.37597 -7.55088,6.75914 -10.75003,4.63177 -21.55656,9.13247 -32.34474,13.67563 -7.2898,3.06988 -14.66012,5.78033 -22.71696,6.04969 -3.44852,0.1153 -5.88342,2.05524 -7.10001,5.25116 -1.02449,2.69127 -1.79889,5.47977 -2.63858,8.23902 -2.46574,8.10215 -6.28057,15.3342 -13.4458,20.2838 -10.00241,6.90946 -21.45114,5.10189 -28.797,-4.60273 -1.95902,-2.58812 -3.4732,-5.51297 -5.34223,-8.52604 -0.96889,1.54475 -1.89833,3.18889 -2.98549,4.72114 -1.5309,2.15754 -2.95916,4.45415 -4.82208,6.29605 -3.88269,3.83895 -8.62711,5.37286 -13.96964,3.65304 -5.31777,-1.71192 -8.31487,-5.6478 -9.33693,-11.03972 -1.4796,-7.80575 0.37479,-15.23319 3.06773,-22.45771 1.46752,-3.93694 3.44662,-7.68322 5.329,-11.76181 0.14619,-0.43073 0.1584,-0.61515 0.17062,-0.79954 -0.24058,0.0955 -0.48117,0.191 -0.72175,0.28654 m -183.39108,38.57027 c -6.6382,14.15193 -12.45703,28.5983 -15.89773,43.91029 -2.62184,11.66783 -3.55363,23.28681 0.65896,34.82694 2.28535,6.26058 4.9193,12.32324 9.42835,17.36733 7.90513,8.84331 19.74587,8.39827 26.69665,-1.15762 1.90669,-2.62128 3.51318,-5.55125 4.75778,-8.54717 4.03324,-9.70853 5.28457,-20.00796 5.98242,-30.40034 1.77901,-26.49321 -6.86037,-50.38773 -18.35104,-73.56542 -0.56368,-1.13702 -1.43917,-2.11945 -2.5561,-3.732 -3.71003,7.37726 -7.13223,14.18216 -10.71929,21.29799 m -13.79576,-41.8935 c 2.8978,-5.59187 3.06706,-11.39594 1.06083,-17.24611 -1.15476,-3.36716 -3.6744,-4.36963 -6.90165,-2.92807 -1.33061,0.59437 -2.63527,1.42416 -3.69258,2.4216 -4.03227,3.804 -7.12191,8.29518 -8.9723,13.53993 -1.33736,3.79063 -2.01466,7.6985 -1.23981,11.74344 0.76732,4.00546 3.89425,6.73399 7.79997,6.76734 2.74849,0.0235 4.98537,-1.27609 6.31504,-3.44478 2.06262,-3.3641 3.67242,-7.00585 5.6305,-10.85335 M 259.64198,190.528 c 0.83092,-2.60643 1.66187,-5.21284 2.49279,-7.81925 -6.23072,6.54485 -29.28588,60.04706 -30.64374,70.73432 11.70726,-19.78753 20.92274,-40.70016 28.15095,-62.91507 m 24.95389,109.50688 c 2.1132,2.86317 3.81578,3.38706 7.03298,1.99465 3.44062,-1.48899 5.98453,-4.05696 8.19895,-6.83017 -2.39131,-1.7707 -4.78406,-3.26357 -6.82931,-5.13605 -2.01188,-1.84187 -3.67114,-4.06889 -5.60767,-6.26594 -2.76252,5.03598 -4.55921,10.14144 -2.79495,16.23751 m 14.62992,-20.65085 c 1.17029,2.60459 3.20529,4.20426 6.29169,5.53722 0,-2.30275 0.26927,-4.19527 -0.0954,-5.95652 -0.24007,-1.15945 -1.18398,-2.6755 -2.18584,-3.06032 -1.60963,-0.61817 -3.61013,1.19182 -4.0105,3.47962 m -68.35876,-25.14288 c 0,0 -0.0402,0.0221 0,0 z"
   id="path8"
   style="stroke-width:0.468748" />
<path
   fill="#c9365e"
   opacity="1"
   stroke="none"
   d="m 174.23305,326.10539 c 3.50464,-6.9604 6.92684,-13.7653 10.63687,-21.14256 1.11693,1.61255 1.99242,2.59498 2.5561,3.732 11.49067,23.17769 20.13005,47.07221 18.35104,73.56542 -0.69785,10.39238 -1.94918,20.69181 -5.98242,30.40034 -1.2446,2.99592 -2.85109,5.92589 -4.75778,8.54717 -6.95078,9.55589 -18.79152,10.00093 -26.69665,1.15762 -4.50905,-5.04409 -7.143,-11.10675 -9.42835,-17.36733 -4.21259,-11.54013 -3.2808,-23.15911 -0.65896,-34.82694 3.4407,-15.31199 9.25953,-29.75836 15.98015,-44.06572 z"
   id="path10"
   style="stroke-width:0.468748" />
<path
   fill="#c8385f"
   opacity="1"
   stroke="none"
   d="m 160.27671,284.52908 c -1.87992,3.68574 -3.48972,7.32749 -5.55234,10.69159 -1.32967,2.16869 -3.56655,3.46824 -6.31504,3.44478 -3.90572,-0.0334 -7.03265,-2.76188 -7.79997,-6.76734 -0.77485,-4.04494 -0.0976,-7.95281 1.23981,-11.74344 1.85039,-5.24475 4.94003,-9.73593 8.9723,-13.53993 1.05731,-0.99744 2.36197,-1.82723 3.69258,-2.4216 3.22725,-1.44156 5.74689,-0.43909 6.90165,2.92807 2.00623,5.85017 1.83697,11.65424 -1.13899,17.40787 z"
   id="path12"
   style="stroke-width:0.468748" />
<path
   fill="#c34063"
   opacity="1"
   stroke="none"
   d="m 259.58147,190.70316 c -7.1677,22.03975 -16.38318,42.95238 -28.09044,62.73991 1.35786,-10.68726 24.41302,-64.18947 30.64374,-70.73432 -0.83092,2.60641 -1.66187,5.21282 -2.5533,7.99441 z"
   id="path14"
   style="stroke-width:0.468748" />
<path
   fill="#c63b61"
   opacity="1"
   stroke="none"
   d="m 284.51501,299.87115 c -1.6834,-5.93234 0.11329,-11.0378 2.87581,-16.07378 1.93653,2.19705 3.59579,4.42407 5.60767,6.26594 2.04525,1.87248 4.438,3.36535 6.82931,5.13605 -2.21442,2.77321 -4.75833,5.34118 -8.19895,6.83017 -3.2172,1.39241 -4.91978,0.86852 -7.11384,-2.15838 z"
   id="path16"
   style="stroke-width:0.468748" />
<path
   fill="#c44266"
   opacity="1"
   stroke="none"
   d="m 299.17546,279.21697 c 0.45069,-2.12074 2.45119,-3.93073 4.06082,-3.31256 1.00186,0.38482 1.94577,1.90087 2.18584,3.06032 0.36463,1.76125 0.0954,3.65377 0.0954,5.95652 -3.08639,-1.33296 -5.1214,-2.93263 -6.34202,-5.70428 z"
   id="path18"
   style="stroke-width:0.468748" />
<path
   fill="#ca355d"
   opacity="1"
   stroke="none"
   d="m 357.66554,287.80107 c 0.11675,-0.20606 0.35734,-0.30155 0.59792,-0.39706 -0.0122,0.18439 -0.0245,0.36881 -0.1302,0.63932 -0.17699,0.0135 -0.26044,-0.0591 -0.46772,-0.24226 z"
   id="path20"
   style="stroke-width:0.468748" />
<path
   fill="#c34063"
   opacity="1"
   stroke="none"
   d="m 230.84691,254.2522 c -0.02,0.011 0.0201,-0.011 0,0 z"
   id="path22"
   style="stroke-width:0.468748" />
</svg>
