<?xml version="1.0" encoding="UTF-8" standalone="no"?>
<svg
   viewBox="0 0 600 372"
   width="600"
   height="372"
   version="1.1"
   id="svg306"
   sodipodi:docname="glow-midi.svg"
   inkscape:version="1.2.2 (b0a8486, 2022-12-01)"
   xmlns:inkscape="http://www.inkscape.org/namespaces/inkscape"
   xmlns:sodipodi="http://sodipodi.sourceforge.net/DTD/sodipodi-0.dtd"
   xmlns="http://www.w3.org/2000/svg"
   xmlns:svg="http://www.w3.org/2000/svg">
  <defs
     id="defs310" />
  <sodipodi:namedview
     id="namedview308"
     pagecolor="#ffffff"
     bordercolor="#666666"
     borderopacity="1.0"
     inkscape:showpageshadow="2"
     inkscape:pageopacity="0.0"
     inkscape:pagecheckerboard="0"
     inkscape:deskcolor="#d1d1d1"
     showgrid="false"
     inkscape:zoom="3.5277192"
     inkscape:cx="566.93855"
     inkscape:cy="70.016912"
     inkscape:window-width="2256"
     inkscape:window-height="1464"
     inkscape:window-x="0"
     inkscape:window-y="0"
     inkscape:window-maximized="1"
     inkscape:current-layer="svg306" />
  <!-- Background -->
  <rect
     x="0"
     y="0"
     width="600"
     height="372"
     rx="24"
     ry="24"
     fill="#e61f5a"
     id="rect290" />
  <!-- MIDI connector (DIN-5 style) -->
  <!-- 5 pins -->
  <!-- Label -->
  <text
     x="276.97754"
     y="325.49988"
     text-anchor="middle"
     font-family="Helvetica, Arial, sans-serif"
     font-weight="bold"
     font-size="109.661px"
     fill="#ffffff"
     id="text304"
     style="fill:#ffdafb;fill-opacity:1;stroke:#da02f2;stroke-width:2.2846;stroke-opacity:0.827349"><tspan
       style="font-style:normal;font-variant:normal;font-weight:bold;font-stretch:normal;font-family:'Courier New';-inkscape-font-specification:'Courier New Bold';fill:#ffdafb;fill-opacity:1;stroke:#da02f2;stroke-width:2.2846;stroke-opacity:0.827349"
       id="tspan719">MIDI</tspan></text>
  <circle
     style="color:#000000;overflow:visible;fill:#ffdafb;fill-rule:evenodd;stroke-width:1.17543;stroke-linejoin:bevel;stroke-miterlimit:19.3;stroke-opacity:0.126946;paint-order:stroke markers fill;stop-color:#000000"
     id="path418"
     cx="395.46701"
     cy="201.89767"
     r="29.026577"
     transform="rotate(-3.9867347)" />
  <text
     xml:space="preserve"
     style="font-style:normal;font-variant:normal;font-weight:normal;font-stretch:normal;font-size:39.8281px;line-height:29.8%;font-family:'Courier New';-inkscape-font-specification:'Courier New';text-decoration-color:#000000;letter-spacing:0px;word-spacing:0px;fill:#e61f5a;fill-opacity:1;stroke:#e61f5a;stroke-width:2.48925px;stroke-linecap:butt;stroke-linejoin:miter;stroke-opacity:1;-inkscape-stroke:none;stop-color:#000000"
     x="367.5173"
     y="245.16328"
     id="text684"
     transform="rotate(-8.3518709)"><tspan
       sodipodi:role="line"
       id="tspan682"
       x="367.5173"
       y="245.16328"
       style="font-style:normal;font-variant:normal;font-weight:bold;font-stretch:normal;font-family:'Courier New';-inkscape-font-specification:'Courier New';fill:#e61f5a;fill-opacity:1;stroke:#e61f5a;stroke-width:2.48925px;stroke-opacity:1">0</tspan></text>
  <circle
     style="color:#000000;overflow:visible;fill:#ffdafb;fill-rule:evenodd;stroke-width:1.17543;stroke-linejoin:bevel;stroke-miterlimit:19.3;stroke-opacity:0.126946;paint-order:stroke markers fill;stop-color:#000000"
     id="path418-3"
     cx="501.50415"
     cy="205.5831"
     r="29.026577"
     transform="rotate(-3.9867347)" />
  <text
     xml:space="preserve"
     style="font-style:normal;font-variant:normal;font-weight:normal;font-stretch:normal;font-size:39.8281px;line-height:29.8%;font-family:'Courier New';-inkscape-font-specification:'Courier New';text-decoration-color:#000000;letter-spacing:0px;word-spacing:0px;fill:#e61f5a;fill-opacity:1;stroke:#e61f5a;stroke-width:2.48925px;stroke-linecap:butt;stroke-linejoin:miter;stroke-opacity:1;-inkscape-stroke:none;stop-color:#000000"
     x="470.48828"
     y="261.81815"
     id="text684-7"
     transform="rotate(-8.9331007)"><tspan
       sodipodi:role="line"
       id="tspan682-5"
       x="470.48828"
       y="261.81815"
       style="font-style:normal;font-variant:normal;font-weight:bold;font-stretch:normal;font-family:'Courier New';-inkscape-font-specification:'Courier New';fill:#e61f5a;fill-opacity:1;stroke:#e61f5a;stroke-width:2.48925px;stroke-opacity:1">1</tspan></text>
  <path
     id="rect474"
     style="overflow:visible;fill:#ffdafb;fill-rule:evenodd;stroke-width:1.24009;stroke-linejoin:bevel;stroke-miterlimit:19.3;stroke-opacity:0.126946;paint-order:stroke markers fill;stop-color:#000000"
     d="m 441.65049,30.368267 c -51.07702,21.5681 -46.45941,-5.02027 -45.27799,11.01537 1.71639,23.29854 21.67367,93.032313 25.03733,135.400183 l 14.48311,-9.3152 C 415.51681,122.50164 414.95678,52.379307 441.65049,30.368267 Z"
     sodipodi:nodetypes="csccc" />
  <path
     id="rect474-3"
     style="overflow:visible;fill:#ffdafb;fill-rule:evenodd;stroke-width:1.24009;stroke-linejoin:bevel;stroke-miterlimit:19.3;stroke-opacity:0.126946;paint-order:stroke markers fill;stop-color:#000000"
     d="m 548.9909,30.410607 c -51.07702,21.56813 -46.45941,-5.02026 -45.27799,11.01537 1.7164,23.29856 21.67368,93.032313 25.03733,135.400223 l 14.48312,-9.31522 C 522.85722,122.54403 522.29719,52.421677 548.9909,30.410607 Z"
     sodipodi:nodetypes="csccc" />
  <g
     id="g316"
     transform="matrix(4.0987081,0,0,4.0987081,8.6388243,81.965519)">
    <path
       fill="#fdfbfc"
       opacity="1"
       stroke="none"
       d="m 50.305034,16.997573 c -1.327703,0.669537 -2.68175,1.283092 -4.158648,1.528753 -0.870643,0.144826 -1.757693,0.196491 -2.639092,0.269052 -0.499574,0.04113 -0.872878,0.250687 -1.194303,0.639286 -0.790538,0.955748 -1.786182,1.581435 -3.037295,1.749768 -1.715868,0.230866 -2.915899,-0.709119 -3.108729,-2.432518 -0.0097,-0.08698 -0.03246,-0.17252 -0.05181,-0.272508 -0.470826,0.238051 -0.910186,0.489245 -1.372057,0.68818 -1.280796,0.551664 -2.611139,0.809671 -4.001001,0.534869 -2.138067,-0.422725 -3.362201,-1.789703 -3.908086,-3.83984 -0.02672,-0.10039 -0.04752,-0.202352 -0.07408,-0.302787 -0.0063,-0.0238 -0.02469,-0.04438 -0.06286,-0.110074 -1.251663,0.471192 -2.471519,1.000839 -3.351568,2.076517 -0.448131,0.547748 -0.406517,0.988889 -0.07013,1.659927 0.908378,1.812005 1.890685,3.597979 2.642456,5.474878 1.128856,2.818326 1.331467,5.792246 1.003913,8.797855 -0.186547,1.711745 -0.509688,3.397273 -1.201122,4.9899 -0.407981,0.939736 -0.952972,1.790824 -1.687097,2.511272 -2.012366,1.974908 -5.021723,1.503306 -6.676259,-0.199399 -1.328952,-1.367635 -2.039163,-3.068022 -2.40932,-4.908957 -0.483775,-2.405996 -0.191463,-4.774728 0.514054,-7.093734 0.992087,-3.260947 2.32238,-6.376873 4.148578,-9.267598 0.0556,-0.08801 0.107432,-0.178399 0.160333,-0.268077 0.651764,-1.104813 0.620555,-1.534357 -0.230809,-2.59572 -0.08097,0.18474 -0.151005,0.340036 -0.217452,0.496849 -0.387722,0.915004 -0.834692,1.793561 -1.538284,2.515397 -1.012058,1.038294 -2.276149,1.2816 -3.695019,0.710764 -1.304998,-0.525027 -2.001013,-1.576948 -2.054674,-2.989134 -0.07431,-1.955538 1.539249,-5.2425 4.095562,-5.966191 1.647639,-0.466443 3.018849,0.05845 3.80232,1.584038 0.534666,1.041107 1.032166,2.101321 1.568643,3.14146 0.264559,0.512939 0.31451,0.523224 0.77308,0.152097 0.576115,-0.46627 1.13318,-0.957679 1.678616,-1.459809 0.54475,-0.501499 1.126146,-0.92359 1.868173,-1.07543 0.584584,-0.119619 0.92493,-0.433488 1.092151,-1.048516 0.419442,-1.542697 0.878403,-3.0768586 1.385192,-4.5931586 1.183857,-3.5420626 2.748739,-6.913524 4.720668,-10.0858996 0.385496,-0.620179 0.913218,-1.164019 1.434231,-1.684068 0.41415,-0.4133816 0.959476,-0.5990066 1.543084,-0.3413946 0.579176,0.2556486 0.77566,0.7739866 0.823154,1.3623226 0.09855,1.220834 -0.210771,2.38174055 -0.581948,3.52036655 -1.170614,3.59097145 -2.84023,6.95953705 -4.688172,10.23962265 -0.53435,0.948463 -1.250095,1.79308 -1.825214,2.720925 -0.282972,0.456523 -0.516082,0.976682 -0.629485,1.498942 -0.256456,1.181059 0.621536,2.360683 1.937443,2.70679 0.749135,0.197034 1.473451,0.07291 2.177397,-0.204926 1.43229,-0.5653 2.593744,-1.525879 3.700285,-2.562494 0.313391,-0.293578 0.6099,-0.605092 0.918321,-0.90407 1.071662,-1.03885 2.375207,-1.356057 3.813553,-1.166691 1.257403,0.165548 2.008846,1.154227 1.903341,2.41612 -0.02587,0.309548 -0.03645,0.621919 -0.02784,0.932265 0.0056,0.198831 0.11137,0.299691 0.340889,0.337938 0.751152,0.125179 1.47912,0.04529 2.198415,-0.169196 1.255744,-0.37445 2.438397,-0.890731 3.481567,-1.7098 0.530797,-0.41677 1.09227,-0.805143 1.679806,-1.135273 0.399134,-0.224266 0.857043,-0.405449 1.30725,-0.464673 0.988182,-0.12999 1.565786,0.564652 1.241248,1.503015 -0.231933,0.670628 -0.587937,1.299386 -0.901546,1.940484 -0.491107,1.003957 -1.022572,1.989336 -1.480599,3.007922 -0.321868,0.715771 -0.462681,1.490479 -0.418756,2.284207 0.01115,0.201498 0.06233,0.400786 0.112619,0.70807 0.225018,-0.170436 0.405628,-0.255556 0.511419,-0.396739 0.365335,-0.487545 0.714374,-0.988148 1.0512,-1.495994 0.387613,-0.584422 0.727844,-1.202427 1.144202,-1.764703 0.200976,-0.271407 0.501477,-0.503054 0.805292,-0.657578 0.722051,-0.367254 1.350985,-0.09375 1.533547,0.694327 0.154727,0.667969 0.186384,1.363631 0.294205,2.043596 0.06081,0.383482 0.122867,0.776133 0.259146,1.136361 0.294941,0.779629 1.199868,1.050271 1.908204,0.600728 0.12,-0.07616 0.240382,-0.162578 0.333913,-0.267934 0.936135,-1.054465 1.489916,-2.274199 1.583796,-3.69205 0.02601,-0.392815 -0.113764,-0.71108 -0.391792,-0.978251 -0.281532,-0.270539 -0.573212,-0.531477 -0.841798,-0.814328 -0.693865,-0.730696 -0.723772,-1.602426 -0.09617,-2.398587 0.591013,-0.74974 1.859917,-1.077371 2.735241,-0.703191 0.577656,0.246934 0.89167,0.701164 0.988634,1.308026 0.05329,0.333577 0.07466,0.672154 0.114802,1.007958 0.08067,0.674877 0.211033,0.785069 0.851894,0.58124 1.015437,-0.322962 2.039691,-0.63467 3.021068,-1.044812 1.991976,-0.832505 3.952794,-1.739363 5.940119,-2.583447 0.273861,-0.116329 0.637932,-0.112333 0.938403,-0.05315 0.493834,0.09725 0.652775,0.511475 0.409076,0.959329 -0.283594,0.52117 -0.723448,0.895996 -1.258482,1.126524 -1.791671,0.771961 -3.59276,1.522078 -5.390791,2.279272 -1.21497,0.511646 -2.443357,0.963387 -3.786164,1.008281 -0.574753,0.01921 -0.980572,0.342541 -1.183336,0.87519 -0.17075,0.448547 -0.299814,0.913297 -0.439765,1.373173 -0.410955,1.350359 -1.04676,2.555699 -2.240968,3.380633 -1.66707,1.151575 -3.575193,0.850315 -4.799503,-0.767122 -0.326503,-0.431352 -0.578868,-0.918827 -0.890374,-1.421008 -0.161479,0.257458 -0.316388,0.531482 -0.497581,0.786858 -0.25515,0.359592 -0.493194,0.742359 -0.80368,1.049342 -0.647116,0.639824 -1.437856,0.895477 -2.328277,0.608839 -0.886297,-0.285321 -1.385813,-0.941299 -1.556158,-1.839953 -0.2466,-1.300959 0.06247,-2.538866 0.511291,-3.74295 0.244588,-0.656157 0.574437,-1.280536 0.888166,-1.960302 0.02436,-0.07179 0.0264,-0.102524 0.02844,-0.133257 -0.0401,0.01592 -0.08019,0.03184 -0.12029,0.04775 m -30.565222,6.42838 c -1.106367,2.358656 -2.076172,4.766383 -2.649622,7.318381 -0.436973,1.944638 -0.592273,3.881137 0.109827,5.804492 0.380892,1.04343 0.819885,2.053872 1.571393,2.894554 1.317524,1.473884 3.290981,1.399713 4.449446,-0.192938 0.317782,-0.436878 0.585529,-0.925207 0.792964,-1.424527 0.672207,-1.618089 0.88076,-3.334661 0.99707,-5.066724 0.296503,-4.415535 -1.143396,-8.397955 -3.05851,-12.260904 -0.09396,-0.189504 -0.239862,-0.353241 -0.426015,-0.622001 -0.61834,1.229544 -1.188709,2.363697 -1.786553,3.549667 m -2.299295,-6.98225 c 0.48297,-0.931978 0.511178,-1.899324 0.176806,-2.874351 -0.192458,-0.561195 -0.6124,-0.728274 -1.150277,-0.488015 -0.221768,0.09907 -0.439209,0.237361 -0.615428,0.403601 -0.672048,0.634002 -1.186989,1.382532 -1.495385,2.256655 -0.222894,0.631771 -0.335777,1.283083 -0.206634,1.95724 0.127884,0.667577 0.64904,1.122332 1.299995,1.127892 0.45808,0.0039 0.830896,-0.212684 1.052508,-0.574132 0.34377,-0.560683 0.612071,-1.16764 0.938415,-1.80889 M 33.988396,0.80380735 c 0.138486,-0.434404 0.276978,-0.868805 0.415465,-1.303209 C 33.365407,0.59140935 29.522876,9.5084414 29.296566,11.289652 31.247777,7.9917304 32.783693,4.5062938 33.988396,0.80380735 M 38.147382,19.054956 c 0.352199,0.477193 0.635962,0.564507 1.172162,0.33244 0.573436,-0.248165 0.997423,-0.67616 1.366493,-1.138362 -0.398552,-0.295115 -0.797343,-0.543929 -1.138217,-0.856009 -0.335315,-0.306979 -0.61186,-0.678148 -0.934614,-1.044321 -0.460422,0.839328 -0.759869,1.69024 -0.465824,2.706252 m 2.438319,-3.441812 c 0.195049,0.434098 0.534217,0.700712 1.048617,0.922871 0,-0.383792 0.04488,-0.699211 -0.0159,-0.992752 -0.04002,-0.193243 -0.197329,-0.445919 -0.364308,-0.510053 -0.268271,-0.10303 -0.601688,0.198636 -0.668416,0.579934 m -11.393129,-4.19047 c 0,0 -0.0068,0.0037 0,0 z"
       id="path8-1"
       style="stroke-width:0.0781248" />
    <path
       fill="#ca355d"
       opacity="1"
       stroke="none"
       d="m 59.610922,47.966833 c 0.01946,-0.03434 0.05955,-0.05026 0.09965,-0.06617 -0.002,0.03074 -0.004,0.06147 -0.0217,0.106555 -0.02949,0.0022 -0.04341,-0.0098 -0.07796,-0.04037 z"
       id="path20-6"
       style="stroke-width:0.0781248" />
    <path
       fill="#c34063"
       opacity="1"
       stroke="none"
       d="m 38.474466,42.375355 c -0.0033,0.0018 0.0033,-0.0018 0,0 z"
       id="path22-0"
       style="stroke-width:0.0781248" />
  </g>
</svg>
